HIERARCHY
ROOT simHips
{
  OFFSET 0.0199349 98.5308 -0.740266
  CHANNELS 6 Xposition Yposition Zposition Zrotation Xrotation Yrotation
  JOINT simSpine
  {
    OFFSET -0.000355721 21.3001 -0.016921
    CHANNELS 3 Zrotation Xrotation Yrotation
    JOINT simLeftArm
    {
      OFFSET 13.5181 21.3012 0
      CHANNELS 3 Zrotation Xrotation Yrotation
      JOINT simLeftForeArm
      {
        OFFSET 24.5783 0 0
        CHANNELS 3 Zrotation Xrotation Yrotation
        JOINT simLeftHand
        {
          OFFSET 24.5783 0 0
          CHANNELS 3 Zrotation Xrotation Yrotation
          End Site
          {
            OFFSET 7.32568 1.52588e-05 0.0169305
          }
        }
      }
    }
    JOINT simHead
    {
      OFFSET 0 27.4458 -0.00489235
      CHANNELS 3 Zrotation Xrotation Yrotation
      End Site
      {
        OFFSET 0 0 0
      }
    }
    JOINT simRightArm
    {
      OFFSET -13.5174 21.3012 0
      CHANNELS 3 Zrotation Xrotation Yrotation
      JOINT simRightForeArm
      {
        OFFSET -24.5783 0 0
        CHANNELS 3 Zrotation Xrotation Yrotation
        JOINT simRightHand
        {
          OFFSET -24.5783 0 0
          CHANNELS 3 Zrotation Xrotation Yrotation
          End Site
          {
            OFFSET -7.32568 1.52588e-05 0.0169305
          }
        }
      }
    }
  }
  JOINT simRightUpLeg
  {
    OFFSET -8.44614 -9.41038 0.835684
    CHANNELS 3 Zrotation Xrotation Yrotation
    JOINT simRightLeg
    {
      OFFSET 0 -40.9639 0
      CHANNELS 3 Zrotation Xrotation Yrotation
      JOINT simRightFoot
      {
        OFFSET 0 -40.9639 0
        CHANNELS 3 Zrotation Xrotation Yrotation
        End Site
        {
          OFFSET 0.50614 -9.67405 14.6709
        }
      }
    }
  }
  JOINT simLeftUpLeg
  {
    OFFSET 8.44614 -9.41038 0.835684
    CHANNELS 3 Zrotation Xrotation Yrotation
    JOINT simLeftLeg
    {
      OFFSET 0 -40.9639 0
      CHANNELS 3 Zrotation Xrotation Yrotation
      JOINT simLeftFoot
      {
        OFFSET 0 -40.9639 0
        CHANNELS 3 Zrotation Xrotation Yrotation
        End Site
        {
          OFFSET -0.50614 -9.67405 14.6709
        }
      }
    }
  }
}
MOTION
Frames:	19
Frame Time:	0.0333333
53.0422 94.4303 25.1665 -6.24423 0.628622 -58.522 1.53 8.79415 9.578 -82.05 -39.78 6.01771 -0.00015145 -7.13661e-06 -36.2713 -13.3848 18.9597 17.5782 -1.02459 3.20221 -17.6331 47.6477 11.3322 -38.7953 0.00361754 -4.06721e-06 112.46 53.7553 55.8904 -36.2943 -13.9635 -11.9242 8.52842 -10.9546 39.7194 -0.206325 29.3269 20.7738 -13.6529 8.26433 -12.4627 14.5995 1.62266 44.3257 -9.99052 3.43529 -26.114 15.6965 
53.213 94.2296 27.3572 -6.89002 -0.0993067 -57.3038 1.08482 9.59443 7.80873 -82.0189 -36.9549 3.5134 -0.000151573 -7.04505e-06 -37.2614 -10.3885 16.2575 15.2481 -0.661408 3.54294 -18.7338 47.6756 9.95849 -43.6569 0.0033014 -4.31069e-06 113.885 34.2754 38.3041 -16.9906 -11.3806 -16.0859 11.6381 -14.3931 50.3255 5.32096 24.3292 19.3411 -8.33932 6.13595 -11.0153 13.8373 2.37699 44.4215 -11.4288 5.27777 -26.9733 17.125 
53.2381 94.2211 29.3723 -7.55653 -0.655229 -55.2322 1.13566 10.3895 5.52041 -82.0964 -33.2127 0.157483 -0.000151531 -7.07656e-06 -36.9233 -7.21811 14.5992 13.2608 -0.329634 3.89782 -19.7181 47.4329 8.27986 -47.2154 0.00298003 -4.33377e-06 114.021 29.7448 26.8306 -10.1171 -7.5468 -19.517 14.3875 -17.8741 59.7066 9.42729 17.9809 13.8075 2.07612 4.63378 -9.30954 13.2466 2.95756 43.837 -11.9798 6.5568 -27.4628 16.5961 
53.0894 94.3658 31.3352 -7.95879 -0.902779 -52.0999 1.55015 10.7969 2.49765 -82.0836 -28.6402 -2.63217 -0.000151612 -7.01512e-06 -37.5803 -5.01524 14.0096 12.3771 0.00355501 4.49355 -20.6579 47.3207 6.69455 -50.0414 0.00265581 -4.267e-06 113.628 29.3372 18.5404 -6.13798 -3.41614 -22.3019 16.2611 -19.4607 65.8372 10.3938 14.1886 8.88421 12.2938 3.93954 -7.72573 12.7845 2.88369 42.818 -11.8905 7.51656 -27.7148 14.3615 
52.8532 94.6671 33.3823 -8.07954 -0.888865 -48.4654 2.17602 10.88 -0.804653 -81.9951 -23.5806 -4.91666 -0.000151829 -6.84282e-06 -39.3727 -4.6591 14.0058 12.3215 0.274785 5.30671 -21.6432 47.0665 5.31274 -51.3624 0.00233107 -4.13883e-06 112.878 30.9625 10.8251 -4.31154 0.424763 -24.93 17.6338 -17.4515 68.181 7.37268 13.2979 5.30512 18.6364 3.74356 -6.09577 12.3081 2.11193 41.1197 -11.3642 8.31438 -27.7313 11.3232 
52.5678 95.0088 35.5257 -8.00061 -0.715706 -45.1076 2.82109 10.8344 -3.7611 -81.8272 -18.4408 -7.29005 -0.000152093 -6.6174e-06 -41.6197 -5.83051 14.1543 12.9296 0.56487 6.07207 -22.6017 46.5749 3.76444 -50.3222 0.00200816 -3.96773e-06 111.882 32.0014 2.68412 -4.69318 3.75203 -27.476 19.0819 -12.7072 66.8556 1.73991 13.8383 2.43715 19.6058 4.05741 -4.19237 12.1573 0.329174 38.771 -10.2587 8.99925 -27.7224 7.77324 
52.2311 95.1299 37.6931 -7.69519 -0.373346 -42.0521 3.33868 10.6747 -6.37839 -81.4197 -13.5039 -9.68743 -0.000152442 -6.29028e-06 -44.715 -7.62916 14.6043 14.159 0.998825 6.58391 -23.5544 46.1594 2.0631 -47.1333 0.0016894 -3.77064e-06 110.743 30.0528 -3.52035 -7.62458 6.34745 -30.148 20.3961 -7.31539 62.6634 -3.66964 14.0041 0.710861 16.8151 5.0002 -2.61345 12.4669 -2.43106 37.0145 -8.68816 9.97508 -27.9898 3.8087 
51.8753 94.9831 39.8223 -7.25261 0.0370407 -38.8016 3.80547 10.5453 -9.01513 -80.6975 -8.67975 -12.4207 -0.000152801 -5.91311e-06 -48.0866 -9.32695 15.0902 15.2358 1.73081 6.80694 -24.8467 45.9712 0.450519 -42.9424 0.00137709 -3.41209e-06 108.693 26.447 -8.9562 -11.5671 7.64932 -32.4675 21.0063 -2.59205 55.5884 -7.958 14.6706 0.67459 11.3547 5.63873 -2.11404 12.862 -3.84264 36.8679 -7.83735 10.7904 -28.5315 -0.04035 
51.3779 94.7009 41.8608 -6.67714 0.424475 -35.5458 4.20383 10.4831 -11.4317 -79.7283 -4.02313 -15.8032 -0.000153084 -5.58111e-06 -50.913 -10.3549 15.3948 15.3056 2.70761 6.82544 -26.5523 46.3152 -1.37957 -39.7654 0.00107356 -2.88145e-06 105.703 21.5463 -12.8302 -15.8896 7.74609 -34.0401 20.976 0.561205 45.6754 -10.4327 15.4026 1.66436 3.90142 5.92008 -2.053 12.7786 -4.52741 37.3405 -7.32065 11.7847 -29.4814 -3.15285 
50.4983 94.3565 43.8178 -5.85631 0.906207 -33.0248 4.40722 10.2505 -13.1223 -78.8375 -0.00907805 -19.6763 -0.000153287 -5.32193e-06 -53.0427 -10.3957 15.8241 14.6705 3.56839 6.75218 -28.1924 47.4482 -2.70122 -38.6739 0.000781208 -2.37759e-06 102.905 16.2329 -14.5712 -19.7648 6.92103 -34.9834 20.352 2.86674 33.7429 -11.5201 16.3767 1.89493 -3.00675 5.8461 -2.15374 12.2759 -4.75789 37.9191 -6.98184 12.7645 -30.6072 -4.95722 
49.2368 94.0289 45.7982 -4.85262 1.55224 -31.5264 4.41322 9.68717 -14.0471 -78.413 3.19949 -23.4792 -0.000153429 -5.12767e-06 -54.6004 -9.99062 16.4421 13.9284 4.02138 6.73544 -29.4168 49.0124 -3.74417 -37.8315 0.000502356 -1.8482e-06 99.9974 11.5718 -13.6663 -22.3664 5.74115 -34.9389 19.1579 4.05162 20.4443 -11.1812 18.9619 0.656757 -10.2242 5.6562 -2.14714 11.7363 -4.97986 38.2566 -6.49323 13.6266 -31.4614 -5.79249 
47.4995 93.2902 48.0657 -3.61892 2.1055 -30.6956 4.1627 8.61474 -14.562 -78.5202 5.90231 -26.3665 -0.000153587 -4.89844e-06 -56.4009 -10.5769 16.8046 13.7053 3.93781 7.08763 -30.3827 50.5671 -4.6357 -37.7794 0.000239341 -1.38923e-06 97.498 7.71384 -8.98988 -24.256 5.98071 -35.6599 19.0836 3.25156 11.5878 -10.438 18.0214 -3.46416 -18.5873 5.40654 -2.22747 11.3644 -5.37532 39.6878 -5.66916 14.3906 -32.7001 -6.15345 
45.6177 92.6147 50.3951 -2.34258 2.45351 -30.2415 3.78205 8.17355 -14.9597 -77.8212 8.30796 -29.3727 -0.000153627 -4.83764e-06 -56.8721 -12.0689 16.8789 13.0099 4.21652 7.01111 -31.2607 52.3479 -5.72531 -38.5094 -5.5103e-06 -1.09239e-06 95.8894 4.59346 -1.99775 -25.8067 7.85673 -36.5559 20.8315 1.15372 8.02433 -10.258 11.7064 -6.01944 -26.1163 4.8403 -1.86249 10.8749 -5.66365 40.672 -4.89655 14.7883 -32.9004 -6.10827 
43.875 91.7967 53.0749 -1.76563 2.75993 -29.9486 4.51807 8.24439 -15.6585 -76.1646 10.2719 -32.0503 -0.000153594 -4.88665e-06 -56.4925 -13.3221 16.3926 12.0392 4.66581 6.35613 -32.1642 53.9548 -6.84439 -40.9465 -0.000229876 -1.05006e-06 95.6604 1.92364 5.21153 -26.8079 10.551 -38.6841 22.2048 1.58972 13.816 -10.5799 8.05353 -8.05584 -29.3345 4.47728 -1.13389 10.381 -5.56971 42.117 -4.3016 14.8599 -32.485 -5.79481 
42.1433 91.0413 56.3339 -2.14451 3.32457 -29.2172 6.71361 8.08164 -17.1006 -74.2822 11.9513 -33.3649 -0.000153529 -4.98407e-06 -55.7329 -12.881 15.131 10.9501 5.00612 5.44065 -33.2683 54.8977 -8.21988 -46.6942 -0.000431397 -1.52764e-06 98.25 -1.04012 10.8141 -26.5521 12.2847 -38.9728 21.9229 3.44315 18.6155 -11.2682 5.36933 -5.85046 -27.789 4.65324 0.373297 9.67237 -4.81337 43.0138 -4.26578 14.2725 -30.9422 -5.70937 
40.2226 90.4909 60.1245 -2.4632 4.19532 -28.2302 8.98615 7.01953 -18.655 -73.1398 13.3005 -33.0663 -0.000153451 -5.09654e-06 -54.8472 -11.515 13.7831 10.7003 5.58961 4.78794 -34.7416 54.389 -10.5505 -56.4223 -0.000607708 -2.37592e-06 102.895 -5.43761 14.3681 -23.6794 14.8746 -39.7757 22.5191 3.58481 22.5971 -11.4565 -2.14704 2.06442 -25.7134 4.58641 2.73181 8.90842 -3.41152 41.9852 -5.55083 13.1687 -27.4533 -5.39477 
38.163 90.3297 64.178 -2.45829 5.12391 -28.7439 10.648 6.25544 -19.0024 -72.6236 13.2485 -31.8433 -0.000153354 -5.23159e-06 -53.771 -10.5603 13.2268 11.3992 7.14523 4.35 -35.7408 53.2597 -13.6924 -64.4236 -0.000756704 -2.53649e-06 103.784 -11.499 17.107 -18.1911 17.7056 -39.6608 23.8111 2.56865 25.5759 -11.2777 -5.18574 6.96294 -24.3399 4.60539 7.02089 9.92688 -3.48308 37.3211 -5.21987 12.3869 -22.7232 -7.19335 
36.1896 90.1122 68.2544 -2.75462 5.84337 -31.1858 12.1027 6.97003 -18.3404 -72.1317 11.2763 -29.4508 -0.000153326 -5.26964e-06 -53.4651 -9.90701 12.8664 12.4447 9.47063 4.21968 -35.7243 51.9282 -16.5922 -68.924 -0.000876078 -2.07036e-06 101.214 -18.2734 19.1496 -11.5099 20.9292 -40.6454 24.4905 3.31367 33.0871 -11.9298 -5.05377 3.41454 -21.5948 7.31141 8.04473 12.4616 -5.50823 38.9484 -6.09716 5.74843 -23.596 -8.60629 
34.7756 89.791 71.8955 -3.11754 6.09818 -33.9196 13.008 8.33845 -17.8195 -71.4673 8.86217 -25.3476 -0.000153361 -5.22276e-06 -53.8418 -9.09748 11.8569 12.9415 11.5926 4.84368 -35.8297 50.6506 -19.1074 -70.8965 -0.000963357 -1.48938e-06 98.0419 -24.5566 20.6484 -5.20379 22.1789 -41.0082 23.1266 5.04194 39.481 -13.2918 -6.02717 -1.99392 -17.4728 10.4873 6.39614 15.5439 -7.83656 45.3628 -4.65646 -2.19819 -26.662 -12.6688 
